<svg xmlns="http://www.w3.org/2000/svg" width="1440" height="900"><path d="M682,449L843,310L684,330Z" fill="#314352" stroke="#314352" stroke-width="1.51"/><path d="M682,449L923,467L843,310Z" fill="#344556" stroke="#344556" stroke-width="1.51"/><path d="M682,449L906,603L923,467Z" fill="#37495b" stroke="#37495b" stroke-width="1.51"/><path d="M906,603L1021,460L923,467Z" fill="#3a4e60" stroke="#3a4e60" stroke-width="1.51"/><path d="M923,467L1013,250L843,310Z" fill="#36495b" stroke="#36495b" stroke-width="1.51"/><path d="M684,330L530,496L682,449Z" fill="#314252" stroke="#314252" stroke-width="1.51"/><path d="M682,449L676,644L906,603Z" fill="#374a5b" stroke="#374a5b" stroke-width="1.51"/><path d="M530,496L676,644L682,449Z" fill="#344657" stroke="#344657" stroke-width="1.51"/><path d="M843,310L766,119L684,330Z" fill="#304353" stroke="#304353" stroke-width="1.51"/><path d="M684,330L511,267L530,496Z" fill="#2f4151" stroke="#2f4151" stroke-width="1.51"/><path d="M859,131L766,119L843,310Z" fill="#304556" stroke="#304556" stroke-width="1.51"/><path d="M1013,250L859,131L843,310Z" fill="#33485a" stroke="#33485a" stroke-width="1.51"/><path d="M1021,460L1013,250L923,467Z" fill="#384c5e" stroke="#384c5e" stroke-width="1.51"/><path d="M571,83L511,267L684,330Z" fill="#2d4151" stroke="#2d4151" stroke-width="1.51"/><path d="M530,496L523,577L676,644Z" fill="#354859" stroke="#354859" stroke-width="1.51"/><path d="M381,577L523,577L530,496Z" fill="#334758" stroke="#334758" stroke-width="1.51"/><path d="M676,644L866,740L906,603Z" fill="#3c5165" stroke="#3c5165" stroke-width="1.51"/><path d="M533,800L710,731L676,644Z" fill="#3b5164" stroke="#3b5164" stroke-width="1.51"/><path d="M906,603L1028,635L1021,460Z" fill="#3d5266" stroke="#3d5266" stroke-width="1.51"/><path d="M1178,92L1017,100L1013,250Z" fill="#364e61" stroke="#364e61" stroke-width="1.51"/><path d="M866,740L1028,635L906,603Z" fill="#3f556a" stroke="#3f556a" stroke-width="1.51"/><path d="M710,731L866,740L676,644Z" fill="#3c5165" stroke="#3c5165" stroke-width="1.51"/><path d="M766,119L571,83L684,330Z" fill="#2d4151" stroke="#2d4151" stroke-width="1.51"/><path d="M714,-54L571,83L766,119Z" fill="#2b3f4f" stroke="#2b3f4f" stroke-width="1.51"/><path d="M1013,250L1017,100L859,131Z" fill="#334a5c" stroke="#334a5c" stroke-width="1.51"/><path d="M885,-60L714,-54L766,119Z" fill="#2c3f4f" stroke="#2c3f4f" stroke-width="1.51"/><path d="M1188,426L1013,250L1021,460Z" fill="#3a4f62" stroke="#3a4f62" stroke-width="1.51"/><path d="M511,267L394,327L530,496Z" fill="#2e4151" stroke="#2e4151" stroke-width="1.51"/><path d="M452,122L394,327L511,267Z" fill="#2c4151" stroke="#2c4151" stroke-width="1.51"/><path d="M394,327L362,420L530,496Z" fill="#2e4251" stroke="#2e4251" stroke-width="1.51"/><path d="M1217,587L1188,426L1021,460Z" fill="#3e5468" stroke="#3e5468" stroke-width="1.51"/><path d="M571,83L452,122L511,267Z" fill="#2b4150" stroke="#2b4150" stroke-width="1.51"/><path d="M228,277L267,470L362,420Z" fill="#2c4151" stroke="#2c4151" stroke-width="1.51"/><path d="M362,420L381,577L530,496Z" fill="#314454" stroke="#314454" stroke-width="1.51"/><path d="M523,577L533,800L676,644Z" fill="#394e60" stroke="#394e60" stroke-width="1.51"/><path d="M1188,426L1196,289L1013,250Z" fill="#3a5165" stroke="#3a5165" stroke-width="1.51"/><path d="M885,-60L766,119L859,131Z" fill="#2f4455" stroke="#2f4455" stroke-width="1.51"/><path d="M571,83L522,2L452,122Z" fill="#293f4f" stroke="#293f4f" stroke-width="1.51"/><path d="M714,-54L522,2L571,83Z" fill="#293d4d" stroke="#293d4d" stroke-width="1.51"/><path d="M1017,100L885,-60L859,131Z" fill="#304758" stroke="#304758" stroke-width="1.51"/><path d="M1058,11L885,-60L1017,100Z" fill="#314859" stroke="#314859" stroke-width="1.51"/><path d="M1028,635L1217,587L1021,460Z" fill="#3f566b" stroke="#3f566b" stroke-width="1.51"/><path d="M866,740L1038,779L1028,635Z" fill="#425b70" stroke="#425b70" stroke-width="1.51"/><path d="M992,952L1038,779L866,740Z" fill="#476077" stroke="#476077" stroke-width="1.51"/><path d="M446,760L533,800L523,577Z" fill="#395063" stroke="#395063" stroke-width="1.51"/><path d="M710,731L766,892L866,740Z" fill="#40576c" stroke="#40576c" stroke-width="1.51"/><path d="M1178,92L1058,11L1017,100Z" fill="#354e60" stroke="#354e60" stroke-width="1.51"/><path d="M1188,426L1382,303L1196,289Z" fill="#3e566a" stroke="#3e566a" stroke-width="1.51"/><path d="M1194,801L1217,587L1028,635Z" fill="#455f75" stroke="#455f75" stroke-width="1.51"/><path d="M381,577L446,760L523,577Z" fill="#364c5e" stroke="#364c5e" stroke-width="1.51"/><path d="M593,882L766,892L710,731Z" fill="#41586b" stroke="#41586b" stroke-width="1.51"/><path d="M1196,289L1178,92L1013,250Z" fill="#385165" stroke="#385165" stroke-width="1.51"/><path d="M381,577L294,731L446,760Z" fill="#374f61" stroke="#374f61" stroke-width="1.51"/><path d="M362,420L267,470L381,577Z" fill="#2f4454" stroke="#2f4454" stroke-width="1.51"/><path d="M228,277L362,420L394,327Z" fill="#2c4150" stroke="#2c4150" stroke-width="1.51"/><path d="M426,899L593,882L533,800Z" fill="#41586c" stroke="#41586c" stroke-width="1.51"/><path d="M533,800L593,882L710,731Z" fill="#3e566a" stroke="#3e566a" stroke-width="1.51"/><path d="M841,1053L836,922L764,1080Z" fill="#50667a" stroke="#50667a" stroke-width="1.51"/><path d="M766,892L836,922L866,740Z" fill="#455d71" stroke="#455d71" stroke-width="1.51"/><path d="M452,122L228,277L394,327Z" fill="#2b4151" stroke="#2b4151" stroke-width="1.51"/><path d="M195,167L228,277L452,122Z" fill="#284050" stroke="#284050" stroke-width="1.51"/><path d="M267,470L260,612L381,577Z" fill="#314658" stroke="#314658" stroke-width="1.51"/><path d="M446,760L426,899L533,800Z" fill="#3d566a" stroke="#3d566a" stroke-width="1.51"/><path d="M68,450L260,612L267,470Z" fill="#2e4455" stroke="#2e4455" stroke-width="1.51"/><path d="M1178,92L1202,13L1058,11Z" fill="#354f62" stroke="#354f62" stroke-width="1.51"/><path d="M1058,11L1020,-145L885,-60Z" fill="#2f4456" stroke="#2f4456" stroke-width="1.51"/><path d="M1343,-13L1202,13L1178,92Z" fill="#385266" stroke="#385266" stroke-width="1.51"/><path d="M1366,175L1178,92L1196,289Z" fill="#3b566a" stroke="#3b566a" stroke-width="1.51"/><path d="M714,-54L583,-160L522,2Z" fill="#273a49" stroke="#273a49" stroke-width="1.51"/><path d="M522,2L410,-70L452,122Z" fill="#283d4d" stroke="#283d4d" stroke-width="1.51"/><path d="M718,-204L583,-160L714,-54Z" fill="#263745" stroke="#263745" stroke-width="1.51"/><path d="M857,-198L714,-54L885,-60Z" fill="#2a3c4c" stroke="#2a3c4c" stroke-width="1.51"/><path d="M583,-160L410,-70L522,2Z" fill="#253948" stroke="#253948" stroke-width="1.51"/><path d="M260,612L294,731L381,577Z" fill="#344b5e" stroke="#344b5e" stroke-width="1.51"/><path d="M1038,779L1194,801L1028,635Z" fill="#466076" stroke="#466076" stroke-width="1.51"/><path d="M1157,903L1194,801L1038,779Z" fill="#4b677f" stroke="#4b677f" stroke-width="1.51"/><path d="M1152,-152L1020,-145L1058,11Z" fill="#304658" stroke="#304658" stroke-width="1.51"/><path d="M1020,-145L857,-198L885,-60Z" fill="#2c3f4f" stroke="#2c3f4f" stroke-width="1.51"/><path d="M857,-198L718,-204L714,-54Z" fill="#273847" stroke="#273847" stroke-width="1.51"/><path d="M836,922L992,952L866,740Z" fill="#486076" stroke="#486076" stroke-width="1.51"/><path d="M841,1053L992,952L836,922Z" fill="#50677c" stroke="#50677c" stroke-width="1.51"/><path d="M1217,587L1402,438L1188,426Z" fill="#42596e" stroke="#42596e" stroke-width="1.51"/><path d="M1194,801L1342,611L1217,587Z" fill="#486279" stroke="#486279" stroke-width="1.51"/><path d="M294,731L426,899L446,760Z" fill="#3b5569" stroke="#3b5569" stroke-width="1.51"/><path d="M764,1080L836,922L766,892Z" fill="#4c6276" stroke="#4c6276" stroke-width="1.51"/><path d="M1402,438L1382,303L1188,426Z" fill="#43596d" stroke="#43596d" stroke-width="1.51"/><path d="M410,-70L289,9L452,122Z" fill="#263d4d" stroke="#263d4d" stroke-width="1.51"/><path d="M228,277L78,312L267,470Z" fill="#2b4050" stroke="#2b4050" stroke-width="1.51"/><path d="M289,9L195,167L452,122Z" fill="#284050" stroke="#284050" stroke-width="1.51"/><path d="M1342,611L1402,438L1217,587Z" fill="#475e74" stroke="#475e74" stroke-width="1.51"/><path d="M1382,303L1366,175L1196,289Z" fill="#40586c" stroke="#40586c" stroke-width="1.51"/><path d="M1470,299L1366,175L1382,303Z" fill="#445c70" stroke="#445c70" stroke-width="1.51"/><path d="M1194,801L1378,796L1342,611Z" fill="#4e6980" stroke="#4e6980" stroke-width="1.51"/><path d="M992,952L1157,903L1038,779Z" fill="#4d677e" stroke="#4d677e" stroke-width="1.51"/><path d="M718,-204L433,-170L583,-160Z" fill="#243543" stroke="#243543" stroke-width="1.51"/><path d="M583,-160L433,-170L410,-70Z" fill="#243745" stroke="#243745" stroke-width="1.51"/><path d="M410,-70L202,-199L289,9Z" fill="#233847" stroke="#233847" stroke-width="1.51"/><path d="M1202,13L1152,-152L1058,11Z" fill="#334b5d" stroke="#334b5d" stroke-width="1.51"/><path d="M1020,-145L1152,-152L857,-198Z" fill="#2d4151" stroke="#2d4151" stroke-width="1.51"/><path d="M1343,-13L1152,-152L1202,13Z" fill="#354e62" stroke="#354e62" stroke-width="1.51"/><path d="M992,952L1033,1068L1157,903Z" fill="#546d84" stroke="#546d84" stroke-width="1.51"/><path d="M764,1080L766,892L593,882Z" fill="#495e72" stroke="#495e72" stroke-width="1.51"/><path d="M195,167L131,156L228,277Z" fill="#284050" stroke="#284050" stroke-width="1.51"/><path d="M113,5L131,156L195,167Z" fill="#253e4e" stroke="#253e4e" stroke-width="1.51"/><path d="M113,5L195,167L289,9Z" fill="#253e4e" stroke="#253e4e" stroke-width="1.51"/><path d="M512,1034L764,1080L593,882Z" fill="#4b6174" stroke="#4b6174" stroke-width="1.51"/><path d="M377,1109L512,1034L426,899Z" fill="#4a6174" stroke="#4a6174" stroke-width="1.51"/><path d="M426,899L512,1034L593,882Z" fill="#455d71" stroke="#455d71" stroke-width="1.51"/><path d="M131,156L78,312L228,277Z" fill="#283f4e" stroke="#283f4e" stroke-width="1.51"/><path d="M260,612L109,727L294,731Z" fill="#354e61" stroke="#354e61" stroke-width="1.51"/><path d="M1561,96L1343,-13L1366,175Z" fill="#425c6f" stroke="#425c6f" stroke-width="1.51"/><path d="M1366,175L1343,-13L1178,92Z" fill="#3c566b" stroke="#3c566b" stroke-width="1.51"/><path d="M1402,438L1470,299L1382,303Z" fill="#465d70" stroke="#465d70" stroke-width="1.51"/><path d="M1487,481L1470,299L1402,438Z" fill="#495f72" stroke="#495f72" stroke-width="1.51"/><path d="M78,312L68,450L267,470Z" fill="#2b3f4e" stroke="#2b3f4e" stroke-width="1.51"/><path d="M294,731L263,944L426,899Z" fill="#3e576c" stroke="#3e576c" stroke-width="1.51"/><path d="M1342,611L1487,481L1402,438Z" fill="#4a6074" stroke="#4a6074" stroke-width="1.51"/><path d="M1521,575L1487,481L1342,611Z" fill="#4e657a" stroke="#4e657a" stroke-width="1.51"/><path d="M841,1053L1033,1068L992,952Z" fill="#546c81" stroke="#546c81" stroke-width="1.51"/><path d="M1359,971L1378,796L1194,801Z" fill="#547088" stroke="#547088" stroke-width="1.51"/><path d="M901,1277L1033,1068L841,1053Z" fill="#5b7286" stroke="#5b7286" stroke-width="1.51"/><path d="M1359,971L1194,801L1157,903Z" fill="#536f87" stroke="#536f87" stroke-width="1.51"/><path d="M49,632L109,727L260,612Z" fill="#324a5c" stroke="#324a5c" stroke-width="1.51"/><path d="M109,727L263,944L294,731Z" fill="#395468" stroke="#395468" stroke-width="1.51"/><path d="M68,450L49,632L260,612Z" fill="#2f4556" stroke="#2f4556" stroke-width="1.51"/><path d="M-35,625L49,632L68,450Z" fill="#2d4253" stroke="#2d4253" stroke-width="1.51"/><path d="M202,-199L113,5L289,9Z" fill="#223948" stroke="#223948" stroke-width="1.51"/><path d="M-75,116L-110,328L78,312Z" fill="#253948" stroke="#253948" stroke-width="1.51"/><path d="M1633,279L1561,96L1470,299Z" fill="#4b6275" stroke="#4b6275" stroke-width="1.51"/><path d="M1538,724L1521,575L1342,611Z" fill="#516a80" stroke="#516a80" stroke-width="1.51"/><path d="M1073,1289L1146,1094L1033,1068Z" fill="#61798f" stroke="#61798f" stroke-width="1.51"/><path d="M1033,1068L1146,1094L1157,903Z" fill="#587289" stroke="#587289" stroke-width="1.51"/><path d="M1343,-13L1320,-204L1152,-152Z" fill="#364c5f" stroke="#364c5f" stroke-width="1.51"/><path d="M1152,-152L1320,-204L857,-198Z" fill="#2f4455" stroke="#2f4455" stroke-width="1.51"/><path d="M857,-198L1320,-204L718,-204Z" fill="#2b3e4e" stroke="#2b3e4e" stroke-width="1.51"/><path d="M1532,-187L1320,-204L1343,-13Z" fill="#3b5163" stroke="#3b5163" stroke-width="1.51"/><path d="M282,1105L377,1109L263,944Z" fill="#4b6376" stroke="#4b6376" stroke-width="1.51"/><path d="M263,944L377,1109L426,899Z" fill="#476073" stroke="#476073" stroke-width="1.51"/><path d="M512,1034L517,1197L764,1080Z" fill="#52687a" stroke="#52687a" stroke-width="1.51"/><path d="M764,1080L901,1277L841,1053Z" fill="#596f82" stroke="#596f82" stroke-width="1.51"/><path d="M433,-170L202,-199L410,-70Z" fill="#223645" stroke="#223645" stroke-width="1.51"/><path d="M718,-204L202,-199L433,-170Z" fill="#223543" stroke="#223543" stroke-width="1.51"/><path d="M1146,1094L1359,971L1157,903Z" fill="#59758c" stroke="#59758c" stroke-width="1.51"/><path d="M1378,796L1538,724L1342,611Z" fill="#526c83" stroke="#526c83" stroke-width="1.51"/><path d="M1472,972L1538,724L1378,796Z" fill="#5a758d" stroke="#5a758d" stroke-width="1.51"/><path d="M49,632L-35,625L109,727Z" fill="#31475a" stroke="#31475a" stroke-width="1.51"/><path d="M109,727L114,952L263,944Z" fill="#3d576b" stroke="#3d576b" stroke-width="1.51"/><path d="M-122,426L-35,625L68,450Z" fill="#2a3c4c" stroke="#2a3c4c" stroke-width="1.51"/><path d="M-110,328L68,450L78,312Z" fill="#273b4a" stroke="#273b4a" stroke-width="1.51"/><path d="M1470,299L1561,96L1366,175Z" fill="#455f72" stroke="#455f72" stroke-width="1.51"/><path d="M1631,471L1470,299L1487,481Z" fill="#4c6275" stroke="#4c6275" stroke-width="1.51"/><path d="M1631,471L1487,481L1521,575Z" fill="#50667a" stroke="#50667a" stroke-width="1.51"/><path d="M377,1109L517,1197L512,1034Z" fill="#51687a" stroke="#51687a" stroke-width="1.51"/><path d="M1701,563L1631,471L1521,575Z" fill="#546b7e" stroke="#546b7e" stroke-width="1.51"/><path d="M377,1109L432,1246L517,1197Z" fill="#546b7d" stroke="#546b7d" stroke-width="1.51"/><path d="M-112,779L114,952L109,727Z" fill="#375064" stroke="#375064" stroke-width="1.51"/><path d="M112,1052L282,1105L263,944Z" fill="#496275" stroke="#496275" stroke-width="1.51"/><path d="M1631,471L1633,279L1470,299Z" fill="#4e6376" stroke="#4e6376" stroke-width="1.51"/><path d="M-75,116L78,312L131,156Z" fill="#253c4b" stroke="#253c4b" stroke-width="1.51"/><path d="M202,-199L112,-192L113,5Z" fill="#203543" stroke="#203543" stroke-width="1.51"/><path d="M1359,971L1472,972L1378,796Z" fill="#5d7890" stroke="#5d7890" stroke-width="1.51"/><path d="M1146,1094L1376,1036L1359,971Z" fill="#607b91" stroke="#607b91" stroke-width="1.51"/><path d="M1621,16L1543,-42L1561,96Z" fill="#476072" stroke="#476072" stroke-width="1.51"/><path d="M1561,96L1543,-42L1343,-13Z" fill="#435b6e" stroke="#435b6e" stroke-width="1.51"/><path d="M-75,116L131,156L113,5Z" fill="#233b4b" stroke="#233b4b" stroke-width="1.51"/><path d="M-37,-38L-75,116L113,5Z" fill="#213745" stroke="#213745" stroke-width="1.51"/><path d="M-110,328L-122,426L68,450Z" fill="#273948" stroke="#273948" stroke-width="1.51"/><path d="M689,1291L901,1277L764,1080Z" fill="#596e80" stroke="#596e80" stroke-width="1.51"/><path d="M1146,1094L1384,1229L1376,1036Z" fill="#668197" stroke="#668197" stroke-width="1.51"/><path d="M517,1197L689,1291L764,1080Z" fill="#576b7d" stroke="#576b7d" stroke-width="1.51"/><path d="M432,1246L689,1291L517,1197Z" fill="#556b7d" stroke="#556b7d" stroke-width="1.51"/><path d="M1376,1036L1472,972L1359,971Z" fill="#627d94" stroke="#627d94" stroke-width="1.51"/><path d="M1538,724L1626,752L1521,575Z" fill="#587187" stroke="#587187" stroke-width="1.51"/><path d="M112,-192L-37,-38L113,5Z" fill="#1f3543" stroke="#1f3543" stroke-width="1.51"/><path d="M247,1257L377,1109L282,1105Z" fill="#526a7c" stroke="#526a7c" stroke-width="1.51"/><path d="M247,1257L432,1246L377,1109Z" fill="#536b7d" stroke="#536b7d" stroke-width="1.51"/><path d="M1472,972L1626,752L1538,724Z" fill="#5c788f" stroke="#5c788f" stroke-width="1.51"/><path d="M1669,102L1621,16L1561,96Z" fill="#4a6476" stroke="#4a6476" stroke-width="1.51"/><path d="M114,952L112,1052L263,944Z" fill="#455e71" stroke="#455e71" stroke-width="1.51"/><path d="M-87,961L112,1052L114,952Z" fill="#425b6d" stroke="#425b6d" stroke-width="1.51"/><path d="M-112,779L109,727L-35,625Z" fill="#32485a" stroke="#32485a" stroke-width="1.51"/><path d="M1633,279L1669,102L1561,96Z" fill="#4c6577" stroke="#4c6577" stroke-width="1.51"/><path d="M1701,563L1669,102L1633,279Z" fill="#51677a" stroke="#51677a" stroke-width="1.51"/><path d="M1701,563L1633,279L1631,471Z" fill="#53677a" stroke="#53677a" stroke-width="1.51"/><path d="M1626,752L1701,563L1521,575Z" fill="#587085" stroke="#587085" stroke-width="1.51"/><path d="M901,1277L1073,1289L1033,1068Z" fill="#5f778b" stroke="#5f778b" stroke-width="1.51"/><path d="M1376,1036L1536,1040L1472,972Z" fill="#668197" stroke="#668197" stroke-width="1.51"/><path d="M689,1291L1073,1289L901,1277Z" fill="#5c7286" stroke="#5c7286" stroke-width="1.51"/><path d="M1073,1289L1177,1248L1146,1094Z" fill="#637c92" stroke="#637c92" stroke-width="1.51"/><path d="M1543,-42L1532,-187L1343,-13Z" fill="#405668" stroke="#405668" stroke-width="1.51"/><path d="M1687,-166L1532,-187L1543,-42Z" fill="#44596a" stroke="#44596a" stroke-width="1.51"/><path d="M1687,-166L1543,-42L1621,16Z" fill="#475e6f" stroke="#475e6f" stroke-width="1.51"/><path d="M-204,742L-112,779L-35,625Z" fill="#304657" stroke="#304657" stroke-width="1.51"/><path d="M1472,972L1718,875L1626,752Z" fill="#637e95" stroke="#637e95" stroke-width="1.51"/><path d="M1626,752L1718,875L1701,563Z" fill="#5f798f" stroke="#5f798f" stroke-width="1.51"/><path d="M1478,1246L1536,1040L1376,1036Z" fill="#6d879d" stroke="#6d879d" stroke-width="1.51"/><path d="M-268,306L-235,477L-122,426Z" fill="#253543" stroke="#253543" stroke-width="1.51"/><path d="M-122,426L-235,477L-35,625Z" fill="#283a49" stroke="#283a49" stroke-width="1.51"/><path d="M-75,116L-203,154L-110,328Z" fill="#233745" stroke="#233745" stroke-width="1.51"/><path d="M-214,-47L-203,154L-75,116Z" fill="#1f3442" stroke="#1f3442" stroke-width="1.51"/><path d="M-268,306L-122,426L-110,328Z" fill="#243644" stroke="#243644" stroke-width="1.51"/><path d="M112,1052L247,1257L282,1105Z" fill="#4f697b" stroke="#4f697b" stroke-width="1.51"/><path d="M432,1246L247,1257L689,1291Z" fill="#546b7d" stroke="#546b7d" stroke-width="1.51"/><path d="M36,1242L247,1257L112,1052Z" fill="#506879" stroke="#506879" stroke-width="1.51"/><path d="M-37,-38L-214,-47L-75,116Z" fill="#1f3341" stroke="#1f3341" stroke-width="1.51"/><path d="M112,-192L-70,-182L-37,-38Z" fill="#1e303e" stroke="#1e303e" stroke-width="1.51"/><path d="M-257,-218L-70,-182L112,-192Z" fill="#1b2c38" stroke="#1b2c38" stroke-width="1.51"/><path d="M-188,953L-87,961L-112,779Z" fill="#3a5062" stroke="#3a5062" stroke-width="1.51"/><path d="M-112,779L-87,961L114,952Z" fill="#3b5365" stroke="#3b5365" stroke-width="1.51"/><path d="M1478,1246L1384,1229L1177,1248Z" fill="#6b869b" stroke="#6b869b" stroke-width="1.51"/><path d="M1177,1248L1384,1229L1146,1094Z" fill="#668197" stroke="#668197" stroke-width="1.51"/><path d="M-269,605L-204,742L-35,625Z" fill="#2d4152" stroke="#2d4152" stroke-width="1.51"/><path d="M-203,154L-268,306L-110,328Z" fill="#233543" stroke="#233543" stroke-width="1.51"/><path d="M-235,477L-269,605L-35,625Z" fill="#2a3c4b" stroke="#2a3c4b" stroke-width="1.51"/><path d="M-214,-47L-268,306L-203,154Z" fill="#203341" stroke="#203341" stroke-width="1.51"/><path d="M1669,1123L1718,875L1536,1040Z" fill="#6f899e" stroke="#6f899e" stroke-width="1.51"/><path d="M1536,1040L1718,875L1472,972Z" fill="#688398" stroke="#688398" stroke-width="1.51"/><path d="M-268,306L-269,605L-235,477Z" fill="#253442" stroke="#253442" stroke-width="1.51"/><path d="M1718,875L1687,-166L1701,563Z" fill="#546a7b" stroke="#546a7b" stroke-width="1.51"/><path d="M1701,563L1687,-166L1669,102Z" fill="#50687a" stroke="#50687a" stroke-width="1.51"/><path d="M1669,102L1687,-166L1621,16Z" fill="#4a6273" stroke="#4a6273" stroke-width="1.51"/><path d="M-70,-182L-214,-47L-37,-38Z" fill="#1d2f3c" stroke="#1d2f3c" stroke-width="1.51"/><path d="M-87,961L-54,1104L112,1052Z" fill="#455c6d" stroke="#455c6d" stroke-width="1.51"/><path d="M-188,953L-54,1104L-87,961Z" fill="#415768" stroke="#415768" stroke-width="1.51"/><path d="M-188,953L-112,779L-204,742Z" fill="#344a5d" stroke="#344a5d" stroke-width="1.51"/><path d="M1073,1289L1478,1246L1177,1248Z" fill="#668197" stroke="#668197" stroke-width="1.51"/><path d="M1384,1229L1478,1246L1376,1036Z" fill="#6e899e" stroke="#6e899e" stroke-width="1.51"/><path d="M-269,605L-188,953L-204,742Z" fill="#314557" stroke="#314557" stroke-width="1.51"/><path d="M-87,1280L36,1242L-54,1104Z" fill="#4d6373" stroke="#4d6373" stroke-width="1.51"/><path d="M-54,1104L36,1242L112,1052Z" fill="#4c6374" stroke="#4c6374" stroke-width="1.51"/><path d="M247,1257L-87,1280L689,1291Z" fill="#526a7c" stroke="#526a7c" stroke-width="1.51"/><path d="M1478,1246L1669,1123L1536,1040Z" fill="#748da2" stroke="#748da2" stroke-width="1.51"/><path d="M-70,-182L-257,-218L-214,-47Z" fill="#1b2b37" stroke="#1b2b37" stroke-width="1.51"/><path d="M-214,-47L-257,-218L-268,306Z" fill="#1d2f3d" stroke="#1d2f3d" stroke-width="1.51"/><path d="M202,-199L-257,-218L112,-192Z" fill="#1c2e3b" stroke="#1c2e3b" stroke-width="1.51"/><path d="M718,-204L-257,-218L202,-199Z" fill="#1f3341" stroke="#1f3341" stroke-width="1.51"/><path d="M1320,-204L-257,-218L718,-204Z" fill="#233442" stroke="#233442" stroke-width="1.51"/><path d="M1478,1246L1656,1221L1669,1123Z" fill="#7791a5" stroke="#7791a5" stroke-width="1.51"/><path d="M1669,1123L1656,1221L1718,875Z" fill="#758fa3" stroke="#758fa3" stroke-width="1.51"/><path d="M-199,1209L-87,1280L-54,1104Z" fill="#4b6070" stroke="#4b6070" stroke-width="1.51"/><path d="M36,1242L-87,1280L247,1257Z" fill="#4f6677" stroke="#4f6677" stroke-width="1.51"/><path d="M-188,953L-233,1123L-54,1104Z" fill="#445869" stroke="#445869" stroke-width="1.51"/><path d="M-269,605L-233,1123L-188,953Z" fill="#374c5e" stroke="#374c5e" stroke-width="1.51"/><path d="M-233,1123L-199,1209L-54,1104Z" fill="#4a5e6d" stroke="#4a5e6d" stroke-width="1.51"/></svg>